<?xml version="1.0"?><svg width="640" height="480" xmlns="http://www.w3.org/2000/svg">
 <metadata id="metadata3177">image/svg+xml</metadata>
 <g>
  <title>Layer 1</title>
  <g id="layer1">
   <path fill="#000000" fill-rule="evenodd" stroke="#000000" stroke-width="1px" id="path2396" d="m202.979675,0.5l-29.7995,31.314728l31.314728,28.789337l30.304565,-30.809631l-31.819794,-29.294434z"/>
   <path fill="#000000" fill-rule="evenodd" stroke="#633232" stroke-width="1px" id="path3168" d="m141.865448,17.672607c0,0 33.335022,105.055847 129.804596,17.677673c0.505066,0.505066 26.263977,34.345154 26.769043,34.345154c-37.375641,41.921356 -151.522888,64.64978 -156.573639,-52.022827z"/>
   <path fill="#000000" fill-rule="evenodd" stroke="#9f2f2f" stroke-width="1px" id="path3170" d="m52.972015,138.385834l-23.233505,-41.921326c118.861282,-79.802063 183.174332,35.355316 97.479721,87.378174l27.779205,11.111694c33.173584,-1.35791 28.401764,-40.796143 63.639618,-72.730988c13.300323,-15.99408 107.412903,-37.03894 109.601563,97.479706c-11.448425,126.269104 -149.165894,113.642151 -125.258942,0c14.310486,74.582947 98.321503,27.442505 98.994965,-0.505066c10.943298,-11.61676 10.269836,-107.076172 -45.961945,-72.730988c-10.943329,10.438263 -20.034698,28.621002 -23.738586,35.860443c-3.703888,7.23938 -15.404572,35.481506 -65.659912,26.769043c46.882324,96.951416 -30.761597,122.688049 -38.385803,124.248718c-19.69162,9.908875 -139.5755,-0.810608 -126.774155,-155.058411c10.269882,80.812195 50.89537,123.977722 115.66246,107.581238c49.028839,-12.412109 48.824036,-100.678528 -26.769043,-71.720825l-17.172577,-53.538086c-0.730652,-2.277893 24.325195,6.361694 50.002533,-0.505066c20.852295,-5.576416 38.083435,-46.319214 -16.667511,-46.46701c-23.986572,-0.064148 -35.692047,16.499176 -53.538086,24.748749z"/>
  </g>
 </g>
</svg>